<svg xmlns="http://www.w3.org/2000/svg" width="1200" height="760" viewBox="0 0 1200 760">
  <style>
    text{font-family:Arial,sans-serif;fill:#002B48} .title{font-size:30px;font-weight:700}.h{font-size:18px;font-weight:700}.b{font-size:14px}.box{fill:#fff;stroke:#D7E0E7;stroke-width:2;rx:10}.topic{fill:#F4F7F9;stroke:#495ED4;stroke-width:3}.line{stroke:#C2D1DB;stroke-width:2}
  </style>
  <text x="48" y="52" class="title">HHVC Topic Page Sitemap — Manager Review</text>
  <rect x="380" y="90" width="440" height="86" class="box topic"/>
  <text x="410" y="124" class="h">Pests and housing problems</text>
  <text x="410" y="150" class="b">Topic page · Article 11 / HHVC scope</text>
  <line x1="600" y1="176" x2="600" y2="220" class="line"/>
  <line x1="180" y1="220" x2="1020" y2="220" class="line"/>
  <line x1="180" y1="220" x2="180" y2="250" class="line"/>
  <line x1="460" y1="220" x2="460" y2="250" class="line"/>
  <line x1="740" y1="220" x2="740" y2="250" class="line"/>
  <line x1="1020" y1="220" x2="1020" y2="250" class="line"/>
  <rect x="40" y="250" width="280" height="390" class="box"/>
  <text x="65" y="282" class="h">Report a problem</text>
  <text x="65" y="315" class="b">• Report rats or mice</text>
  <text x="65" y="340" class="b">• Report cockroaches</text>
  <text x="65" y="365" class="b">• Report bed bugs</text>
  <text x="65" y="390" class="b">• Report mosquitoes</text>
  <text x="65" y="415" class="b">• Report garbage / vegetation</text>
  <text x="65" y="440" class="b">• Report mold from humidity</text>
  <rect x="340" y="250" width="280" height="390" class="box"/>
  <text x="365" y="282" class="h">Prevent problems</text>
  <text x="365" y="315" class="b">• Keep rats and mice out</text>
  <text x="365" y="340" class="b">• Prevent cockroaches</text>
  <text x="365" y="365" class="b">• Prevent mosquitoes</text>
  <text x="365" y="390" class="b">• Bed bug rules</text>
  <text x="365" y="415" class="b">• IPM for property managers</text>
  <rect x="640" y="250" width="240" height="390" class="box"/>
  <text x="665" y="282" class="h">Know scope</text>
  <text x="665" y="315" class="b">• What HHVC can inspect</text>
  <text x="665" y="340" class="b">• What happens after report</text>
  <rect x="900" y="250" width="260" height="390" class="box"/>
  <text x="925" y="282" class="h">Tenant rights</text>
  <text x="925" y="315" class="b">• Tenant rights and reporting</text>
  <text x="925" y="340" class="b">• What happens after report</text>
  <text x="925" y="365" class="b">• Bed bug rules</text>
</svg>
